:SAMPLES-PER-SECOND 30
:FULLY-SPECIFIED
:DEGREES
478
root  88.5145 39.3115 -3.85018 -137.349 -86.4543 136.08
RightUpLeg  -2.6325 -9.64401 -6.72414
RightLeg  4.18965 0.23316 0.64481
RightFoot  -1.60139 -0.0594524 0.548755
RightToes  -4.65661e-009 0 -3.6325e-017
Spine  5.31583 1.37426 5.3035
Spine1  2.43545 3.02974 -7.34503
HEad  -3.15226 -10.4967 -5.42884
LeftShoulder1  -0.393463 4.55268 -31.378
LeftArm  -3.52698 14.7295 -40.6425
LeftForeArm  27.606 -15.0726 -5.79729
LeftHand  -0.0662121 10.1163 -0.521964
RightShoulder  -0.43833 -4.817 26.4503
RightArm  20.2625 22.7687 51.0839
RightForeArm  14.8551 26.8399 4.95092
RightHand  -0.220624 2.79045 -3.35153
LeftUpLeg  -0.442264 6.05295 0.648625
LeftLeg  2.45214 6.81319 -0.121238
LeftFoot  -0.594966 -0.108494 1.19007
LeftToes  9.86798e-010 -1.28139e-010 1.4132e-011
479
root  88.5297 39.3025 -3.90933 -133.117 -86.7177 131.827
RightUpLeg  -2.9424 -9.54216 -6.60569
RightLeg  4.99574 -0.278997 0.53059
RightFoot  -2.14784 -0.0684472 0.67456
RightToes  -4.65661e-009 0 -3.6325e-017
Spine  5.35899 1.24755 5.08463
Spine1  2.72093 2.86968 -7.13001
HEad  -3.32957 -10.2195 -5.52872
LeftShoulder1  -0.406991 4.59147 -31.275
LeftArm  -2.80894 14.8317 -40.93
LeftForeArm  26.8039 -15.2433 -5.88534
LeftHand  0.0209655 11.3126 1.00207
RightShoulder  -0.520276 -5.04161 27.0331
RightArm  23.4827 20.763 51.5093
RightForeArm  12.5555 23.1441 4.4767
RightHand  -0.196625 2.17111 -3.20031
LeftUpLeg  -0.53302 6.16661 0.801033
LeftLeg  2.61125 6.41771 -0.195236
LeftFoot  -0.855844 -0.0605678 0.71791
LeftToes  9.86798e-010 -1.28139e-010 1.4132e-011
480
root  88.5286 39.2762 -3.97329 -125.428 -87.014 123.988
RightUpLeg  -3.05677 -9.31378 -6.45862
RightLeg  5.81224 -0.99972 0.236752
RightFoot  -3.18141 -0.0941709 1.01855
RightToes  -4.65661e-009 0 -3.6325e-017
Spine  5.16261 1.25237 4.6436
Spine1  3.56715 2.77199 -6.5025
HEad  -3.90343 -10.3534 -5.85911
LeftShoulder1  -0.452227 4.70399 -31.5415
LeftArm  -5.01597 14.2119 -41.0857
LeftForeArm  30.0068 -14.2393 -5.80061
LeftHand  -0.0418027 5.48995 -0.789172
RightShoulder  -0.518889 -5.03026 27.1794
RightArm  23.3937 18.3822 51.8358
RightForeArm  13.5574 18.227 5.1952
RightHand  -0.152196 1.99103 -2.57388
LeftUpLeg  -0.716308 6.27657 0.914346
LeftLeg  3.17983 5.72557 -0.200135
LeftFoot  -0.978244 -0.0766605 0.909599
LeftToes  9.86798e-010 -1.28139e-010 1.4132e-011
481
root  88.535 39.2535 -4.04612 -108.064 -87.3418 106.682
RightUpLeg  -3.43367 -9.21823 -6.42359
RightLeg  6.86534 -1.9687 -0.0665126
RightFoot  -4.38589 -0.110066 1.31315
RightToes  -4.65661e-009 0 -3.6325e-017
Spine  5.67498 1.0934 4.27495
Spine1  3.03629 2.49811 -6.07958
HEad  -3.7483 -10.4215 -6.40518
LeftShoulder1  -0.455375 4.71177 -31.5577
LeftArm  -3.96293 14.1141 -41.2675
LeftForeArm  28.5561 -14.8659 -5.78921
LeftHand  -0.0509266 7.28703 -0.580983
RightShoulder  -0.591096 -5.20329 28.0069
RightArm  19.346 15.6014 51.3562
RightForeArm  18.6016 12.4108 7.13474
RightHand  -0.134372 2.25002 -2.2316
LeftUpLeg  -1.15645 6.11363 0.813367
LeftLeg  3.60893 4.89964 -0.112215
LeftFoot  -0.882486 -0.101696 1.16958
LeftToes  9.86798e-010 -1.28139e-010 1.4132e-011
482
root  88.4877 39.2451 -4.14431 -93.8385 -87.4556 92.3517
RightUpLeg  -3.28304 -9.10737 -6.28061
RightLeg  7.3596 -2.69823 -0.243204
RightFoot  -5.58509 -0.11814 1.6167
RightToes  -4.65661e-009 0 -3.6325e-017
Spine  5.70305 1.17425 4.06482
Spine1  3.35325 2.48049 -5.56175
HEad  -4.09113 -10.8757 -6.98011
LeftShoulder1  -0.444034 4.67996 -31.6137
LeftArm  -4.87161 13.4658 -41.6917
LeftForeArm  29.3886 -14.7358 -5.63051
LeftHand  -0.0587681 6.51863 -2.01962
RightShoulder  -0.694965 -5.46042 28.8507
RightArm  14.9489 12.5324 50.6421
RightForeArm  22.2914 6.49719 7.92097
RightHand  -0.139985 2.52141 -2.25541
LeftUpLeg  -1.09025 6.32728 1.07394
LeftLeg  3.75699 4.06825 -0.272315
LeftFoot  -1.16538 -0.0646534 0.803667
LeftToes  9.86798e-010 -1.28139e-010 1.4132e-011
483
root  88.4447 39.2472 -4.23494 -71.825 -87.283 70.4356
RightUpLeg  -3.25261 -9.26796 -6.25688
RightLeg  7.80176 -3.50491 -0.285132
RightFoot  -6.75742 -0.132118 2.11797
RightToes  -4.65661e-009 0 -3.6325e-017
Spine  5.67028 1.00291 3.85812
Spine1  3.59743 2.15696 -4.81496
HEad  -4.52593 -10.9602 -7.52923
LeftShoulder1  -0.495007 4.8099 -31.7512
LeftArm  -3.76304 13.1156 -41.7739
LeftForeArm  28.315 -15.5534 -5.51344
LeftHand  -0.023661 5.00851 -1.5514
RightShoulder  -0.712602 -5.49216 29.1547
RightArm  13.0315 8.53813 50.2716
RightForeArm  23.3867 2.56843 7.32442
RightHand  -0.155575 2.65657 -2.36589
LeftUpLeg  -1.3458 6.14559 1.09305
LeftLeg  3.91135 3.22454 -0.175483
LeftFoot  -1.2728 -0.0347272 0.479348
LeftToes  9.86798e-010 -1.28139e-010 1.4132e-011
